<svg xmlns="http://www.w3.org/2000/svg" width="1200" height="675" viewBox="0 0 1200 675">
  <defs>
    <linearGradient id="wood" x1="0" x2="1">
      <stop stop-color="#160d07"/>
      <stop offset="0.5" stop-color="#3a2415"/>
      <stop offset="1" stop-color="#160d07"/>
    </linearGradient>
    <linearGradient id="brass" x1="0" x2="1">
      <stop stop-color="#e7d3a1"/>
      <stop offset="1" stop-color="#c8a45d"/>
    </linearGradient>
  </defs>
  <rect width="1200" height="675" fill="url(#wood)"/>
  <g opacity="0.18" stroke="#eadfca">
    <path d="M0 80 C180 20 260 140 440 80 S760 20 1200 95" fill="none"/>
    <path d="M0 165 C220 95 310 210 520 155 S850 95 1200 175" fill="none"/>
    <path d="M0 565 C260 500 410 625 650 552 S920 520 1200 590" fill="none"/>
  </g>
  <text x="70" y="128" fill="#f7f0df" font-size="56" font-family="Georgia" font-weight="700">Netflix Content Strategy Analytics</text>
  <text x="70" y="188" fill="#e7d3a1" font-size="25" font-family="Arial">Wooden boardroom dashboard • engagement • churn • revenue • recommendations</text>
  <g font-family="Arial">
    <rect x="70" y="260" width="250" height="140" rx="24" fill="#2a170c" stroke="#c8a45d"/>
    <text x="95" y="315" fill="#b9a98d" font-size="20">Watch Sessions</text>
    <text x="95" y="370" fill="#e7d3a1" font-size="44" font-weight="800">132,000</text>
    <rect x="350" y="260" width="250" height="140" rx="24" fill="#2a170c" stroke="#c8a45d"/>
    <text x="375" y="315" fill="#b9a98d" font-size="20">Users</text>
    <text x="375" y="370" fill="#e7d3a1" font-size="44" font-weight="800">24,000</text>
    <rect x="630" y="260" width="250" height="140" rx="24" fill="#2a170c" stroke="#c8a45d"/>
    <text x="655" y="315" fill="#b9a98d" font-size="20">Churn AUC</text>
    <text x="655" y="370" fill="#e7d3a1" font-size="44" font-weight="800">0.72</text>
    <rect x="910" y="260" width="220" height="140" rx="24" fill="#2a170c" stroke="#c8a45d"/>
    <text x="935" y="315" fill="#b9a98d" font-size="20">Titles</text>
    <text x="935" y="370" fill="#e7d3a1" font-size="44" font-weight="800">1,500</text>
  </g>
  <path d="M90 550 C260 460 370 565 520 480 S805 535 1030 430" fill="none" stroke="url(#brass)" stroke-width="10" stroke-linecap="round"/>
</svg>
