<svg xmlns="http://www.w3.org/2000/svg" width="1200" height="675" viewBox="0 0 1200 675"><defs><linearGradient id="g" x1="0" x2="1"><stop stop-color="#e50914"/><stop offset="1" stop-color="#00f5ff"/></linearGradient></defs><rect width="1200" height="675" fill="#05010d"/><g opacity=".25" stroke="#e50914"><line x1="0" y1="0" x2="-220" y2="675"/><line x1="70" y1="0" x2="-150" y2="675"/><line x1="140" y1="0" x2="-80" y2="675"/><line x1="210" y1="0" x2="-10" y2="675"/><line x1="280" y1="0" x2="60" y2="675"/><line x1="350" y1="0" x2="130" y2="675"/><line x1="420" y1="0" x2="200" y2="675"/><line x1="490" y1="0" x2="270" y2="675"/><line x1="560" y1="0" x2="340" y2="675"/><line x1="630" y1="0" x2="410" y2="675"/><line x1="700" y1="0" x2="480" y2="675"/><line x1="770" y1="0" x2="550" y2="675"/><line x1="840" y1="0" x2="620" y2="675"/><line x1="910" y1="0" x2="690" y2="675"/><line x1="980" y1="0" x2="760" y2="675"/><line x1="1050" y1="0" x2="830" y2="675"/><line x1="1120" y1="0" x2="900" y2="675"/><line x1="1190" y1="0" x2="970" y2="675"/><line x1="1260" y1="0" x2="1040" y2="675"/><line x1="1330" y1="0" x2="1110" y2="675"/><line x1="1400" y1="0" x2="1180" y2="675"/><line x1="1470" y1="0" x2="1250" y2="675"/></g><text x="70" y="130" fill="#fff" font-size="54" font-family="Arial" font-weight="800">Netflix Content Strategy Analytics</text><text x="70" y="190" fill="#a7b1d8" font-size="26" font-family="Arial">Cyberpunk executive dashboard • engagement • churn • revenue • recommendations</text><rect x="70" y="260" width="250" height="140" rx="24" fill="#121735" stroke="#e50914"/><text x="95" y="315" fill="#a7b1d8" font-size="20" font-family="Arial">Watch Sessions</text><text x="95" y="370" fill="#00f5ff" font-size="44" font-family="Arial" font-weight="800">132,000</text><rect x="350" y="260" width="250" height="140" rx="24" fill="#121735" stroke="#00f5ff"/><text x="375" y="315" fill="#a7b1d8" font-size="20" font-family="Arial">Users</text><text x="375" y="370" fill="#e50914" font-size="44" font-family="Arial" font-weight="800">24,000</text><rect x="630" y="260" width="250" height="140" rx="24" fill="#121735" stroke="#e50914"/><text x="655" y="315" fill="#a7b1d8" font-size="20" font-family="Arial">Churn AUC</text><text x="655" y="370" fill="#9dff00" font-size="44" font-family="Arial" font-weight="800">0.72</text><rect x="910" y="260" width="220" height="140" rx="24" fill="#121735" stroke="#00f5ff"/><text x="935" y="315" fill="#a7b1d8" font-size="20" font-family="Arial">Titles</text><text x="935" y="370" fill="#fff" font-size="44" font-family="Arial" font-weight="800">1,500</text><path d="M90 550 C260 460 370 565 520 480 S805 535 1030 430" fill="none" stroke="url(#g)" stroke-width="10" stroke-linecap="round"/></svg>